<svg width="949" height="405" viewBox="0 0 949 405" fill="none" xmlns="http://www.w3.org/2000/svg">
<path d="M198.565 376.155C179.723 381.116 163.634 361.868 171.858 344.205L195.691 293.019C202.803 277.745 223.383 275.049 234.189 287.977L264.957 324.786C275.763 337.714 269.46 357.489 253.166 361.779L198.565 376.155Z" fill="#FFA0A0"/>
<path d="M245.19 342.53C228.995 353.363 207.51 340.413 209.526 321.033L217.705 242.409C219.448 225.65 238.025 216.392 252.455 225.09L309.98 259.764C324.411 268.462 324.899 289.212 310.895 298.58L245.19 342.53Z" fill="#FF8D8D"/>
<path d="M305.875 279.764C303.274 299.073 279.344 306.604 266.154 292.264L195.093 215.012C183.686 202.612 189.045 182.56 205.116 177.502L290.191 150.729C306.262 145.671 322.139 159.041 319.889 175.739L305.875 279.764Z" fill="#F37676"/>
<path d="M304.321 160.476C315.861 176.174 303.876 198.213 284.426 197.058L149.095 189.022C132.276 188.024 122.204 169.876 130.253 155.074L185.288 53.8786C193.337 39.077 214.045 37.6688 224.025 51.2443L304.321 160.476Z" fill="#EC6262"/>
<path d="M106.5 81.5002C106.5 74.1462 107.948 66.8642 110.763 60.07C113.577 53.2757 117.702 47.1023 122.902 41.9022C128.102 36.7022 134.276 32.5772 141.07 29.763C147.864 26.9487 155.146 25.5002 162.5 25.5002C169.854 25.5003 177.136 26.9487 183.93 29.763C190.725 32.5773 196.898 36.7022 202.098 41.9023C207.298 47.1024 211.423 53.2758 214.237 60.07C217.052 66.8643 218.5 74.1463 218.5 81.5003L204.199 81.5003C204.199 76.0243 203.121 70.6018 201.025 65.5426C198.93 60.4834 195.858 55.8865 191.986 52.0143C188.114 48.1422 183.517 45.0706 178.458 42.975C173.399 40.8794 167.976 39.8008 162.5 39.8008C157.024 39.8008 151.602 40.8794 146.542 42.975C141.483 45.0705 136.886 48.1421 133.014 52.0143C129.142 55.8864 126.07 60.4833 123.975 65.5425C121.879 70.6018 120.801 76.0242 120.801 81.5002H106.5Z" fill="#25283D"/>
<path d="M93.5 116.5C93.5 125.889 101.111 133.5 110.5 133.5L121.5 133.5C124.261 133.5 126.5 131.262 126.5 128.5L126.5 84.5002C126.5 81.7388 124.261 79.5002 121.5 79.5002L110.5 79.5002C101.111 79.5002 93.5 87.1114 93.5 96.5002L93.5 116.5Z" fill="#25283D"/>
<path d="M41.6211 195.348C22.4417 191.917 15.9488 167.685 30.8434 155.125L151.622 53.2716C164.502 42.4096 184.305 48.6265 188.666 64.9013L223.411 194.572C227.772 210.847 213.731 226.132 197.145 223.166L41.6211 195.348Z" fill="#D55252"/>
<path d="M167.5 120.5C167.5 129.337 160.337 136.5 151.5 136.5C142.663 136.5 135.5 129.337 135.5 120.5C135.5 111.664 142.663 104.5 151.5 104.5C160.337 104.5 167.5 111.664 167.5 120.5Z" fill="#EFD9CE"/>
<path fill-rule="evenodd" clip-rule="evenodd" d="M115.988 1.16824C116.172 1.97611 115.665 2.7797 114.858 2.9631C99.5568 6.43679 75.6988 14.315 53.9521 26.6306C32.1562 38.974 12.7737 55.6089 5.95103 76.4667C-0.872775 97.328 4.71977 116.009 16.7627 128.836C28.8355 141.695 47.4226 148.697 66.6052 146.015C67.4257 145.9 68.1838 146.472 68.2985 147.293C68.4132 148.113 67.8411 148.871 67.0207 148.986C46.8699 151.804 27.3133 144.456 14.5756 130.89C1.80808 117.291 -4.0765 97.4726 3.09969 75.534C10.277 53.5918 30.4779 36.4767 52.4737 24.0201C74.5187 11.5357 98.6608 3.56387 114.193 0.0375506C115.001 -0.145857 115.805 0.360369 115.988 1.16824Z" fill="#D55252"/>
<path fill-rule="evenodd" clip-rule="evenodd" d="M171.988 1.16824C172.172 1.97611 171.665 2.7797 170.858 2.9631C155.557 6.43679 131.699 14.315 109.952 26.6306C88.1562 38.974 68.7737 55.6089 61.951 76.4667C55.1272 97.328 60.7198 116.009 72.7627 128.836C84.8355 141.695 103.423 148.697 122.605 146.015C123.426 145.9 124.184 146.472 124.299 147.293C124.413 148.113 123.841 148.871 123.021 148.986C102.87 151.804 83.3133 144.456 70.5756 130.89C57.8081 117.291 51.9235 97.4726 59.0997 75.534C66.277 53.5918 86.4779 36.4767 108.474 24.0201C130.519 11.5357 154.661 3.56387 170.193 0.0375506C171.001 -0.145857 171.805 0.360369 171.988 1.16824Z" fill="#D55252"/>
<path d="M350.955 202.036C350.955 193.684 352.683 186.388 356.139 180.148C359.595 173.908 364.395 169.108 370.539 165.748C376.779 162.388 383.883 160.708 391.851 160.708C402.123 160.708 410.763 163.54 417.771 169.204C424.779 174.772 429.291 182.596 431.307 192.676H401.355C399.627 187.396 396.267 184.756 391.275 184.756C387.723 184.756 384.891 186.244 382.779 189.22C380.763 192.1 379.755 196.372 379.755 202.036C379.755 207.7 380.763 212.02 382.779 214.996C384.891 217.972 387.723 219.46 391.275 219.46C396.363 219.46 399.723 216.82 401.355 211.54H431.307C429.291 221.524 424.779 229.348 417.771 235.012C410.763 240.676 402.123 243.508 391.851 243.508C383.883 243.508 376.779 241.828 370.539 238.468C364.395 235.108 359.595 230.308 356.139 224.068C352.683 217.828 350.955 210.484 350.955 202.036Z" fill="#D55252"/>
<path d="M424.024 202.036C424.024 193.684 425.512 186.388 428.488 180.148C431.56 173.908 435.688 169.108 440.872 165.748C446.152 162.388 452.008 160.708 458.44 160.708C464.008 160.708 468.808 161.812 472.84 164.02C476.872 166.228 479.992 169.204 482.2 172.948V161.716H510.424V242.5H482.2V231.268C479.992 235.012 476.824 237.988 472.696 240.196C468.664 242.404 463.912 243.508 458.44 243.508C452.008 243.508 446.152 241.828 440.872 238.468C435.688 235.108 431.56 230.308 428.488 224.068C425.512 217.732 424.024 210.388 424.024 202.036ZM482.2 202.036C482.2 196.852 480.76 192.772 477.88 189.796C475.096 186.82 471.64 185.332 467.512 185.332C463.288 185.332 459.784 186.82 457 189.796C454.216 192.676 452.824 196.756 452.824 202.036C452.824 207.22 454.216 211.348 457 214.42C459.784 217.396 463.288 218.884 467.512 218.884C471.64 218.884 475.096 217.396 477.88 214.42C480.76 211.444 482.2 207.316 482.2 202.036Z" fill="#D55252"/>
<path d="M617.659 160.996C627.835 160.996 635.803 164.068 641.563 170.212C647.419 176.356 650.347 184.756 650.347 195.412V242.5H622.123V199.156C622.123 194.836 620.923 191.476 618.523 189.076C616.123 186.676 612.859 185.476 608.731 185.476C604.603 185.476 601.339 186.676 598.939 189.076C596.539 191.476 595.339 194.836 595.339 199.156V242.5H567.115V199.156C567.115 194.836 565.915 191.476 563.515 189.076C561.211 186.676 557.995 185.476 553.867 185.476C549.643 185.476 546.331 186.676 543.931 189.076C541.531 191.476 540.331 194.836 540.331 199.156V242.5H512.107V161.716H540.331V172.372C542.827 168.916 546.043 166.18 549.979 164.164C554.011 162.052 558.619 160.996 563.803 160.996C569.755 160.996 575.035 162.292 579.643 164.884C584.347 167.476 588.043 171.124 590.731 175.828C593.611 171.412 597.403 167.86 602.107 165.172C606.811 162.388 611.995 160.996 617.659 160.996Z" fill="#D55252"/>
<path d="M646.802 202.036C646.802 193.684 648.29 186.388 651.266 180.148C654.338 173.908 658.466 169.108 663.65 165.748C668.93 162.388 674.786 160.708 681.218 160.708C686.786 160.708 691.586 161.812 695.618 164.02C699.65 166.228 702.77 169.204 704.978 172.948V161.716H733.202V242.5H704.978V231.268C702.77 235.012 699.602 237.988 695.474 240.196C691.442 242.404 686.69 243.508 681.218 243.508C674.786 243.508 668.93 241.828 663.65 238.468C658.466 235.108 654.338 230.308 651.266 224.068C648.29 217.732 646.802 210.388 646.802 202.036ZM704.978 202.036C704.978 196.852 703.538 192.772 700.658 189.796C697.874 186.82 694.418 185.332 690.29 185.332C686.066 185.332 682.562 186.82 679.778 189.796C676.994 192.676 675.602 196.756 675.602 202.036C675.602 207.22 676.994 211.348 679.778 214.42C682.562 217.396 686.066 218.884 690.29 218.884C694.418 218.884 697.874 217.396 700.658 214.42C703.538 211.444 704.978 207.316 704.978 202.036Z" fill="#D55252"/>
<path d="M763.109 175.972C766.277 171.364 770.117 167.716 774.629 165.028C779.141 162.34 783.989 160.996 789.173 160.996V191.092H781.253C775.109 191.092 770.549 192.292 767.573 194.692C764.597 197.092 763.109 201.268 763.109 207.22V242.5H734.885V161.716H763.109V175.972Z" fill="#D55252"/>
<path d="M780.283 202.036C780.283 193.684 781.771 186.388 784.747 180.148C787.819 173.908 791.947 169.108 797.131 165.748C802.411 162.388 808.267 160.708 814.699 160.708C820.267 160.708 825.067 161.812 829.099 164.02C833.131 166.228 836.251 169.204 838.459 172.948V161.716H866.683V242.5H838.459V231.268C836.251 235.012 833.083 237.988 828.955 240.196C824.923 242.404 820.171 243.508 814.699 243.508C808.267 243.508 802.411 241.828 797.131 238.468C791.947 235.108 787.819 230.308 784.747 224.068C781.771 217.732 780.283 210.388 780.283 202.036ZM838.459 202.036C838.459 196.852 837.019 192.772 834.139 189.796C831.355 186.82 827.899 185.332 823.771 185.332C819.547 185.332 816.043 186.82 813.259 189.796C810.475 192.676 809.083 196.756 809.083 202.036C809.083 207.22 810.475 211.348 813.259 214.42C816.043 217.396 819.547 218.884 823.771 218.884C827.899 218.884 831.355 217.396 834.139 214.42C837.019 211.444 838.459 207.316 838.459 202.036ZM795.115 155.668C797.803 140.02 805.003 132.196 816.715 132.196C818.923 132.196 820.891 132.532 822.619 133.204C824.443 133.876 826.507 134.836 828.811 136.084C830.443 136.948 831.835 137.62 832.987 138.1C834.139 138.58 835.291 138.82 836.443 138.82C839.995 138.82 842.107 136.612 842.779 132.196H857.035C855.691 140.356 853.147 146.308 849.403 150.052C845.755 153.7 841.099 155.524 835.435 155.524C833.323 155.524 831.403 155.236 829.675 154.66C827.947 153.988 825.835 153.028 823.339 151.78C821.707 150.916 820.315 150.244 819.163 149.764C818.011 149.284 816.859 149.044 815.707 149.044C812.251 149.044 810.091 151.252 809.227 155.668H795.115Z" fill="#D55252"/>
<path d="M905.95 243.508C897.886 243.508 890.638 241.828 884.206 238.468C877.87 235.108 872.878 230.308 869.23 224.068C865.582 217.828 863.758 210.484 863.758 202.036C863.758 193.684 865.582 186.388 869.23 180.148C872.974 173.908 878.014 169.108 884.35 165.748C890.782 162.388 898.03 160.708 906.094 160.708C914.158 160.708 921.358 162.388 927.694 165.748C934.126 169.108 939.166 173.908 942.814 180.148C946.558 186.388 948.43 193.684 948.43 202.036C948.43 210.388 946.558 217.732 942.814 224.068C939.166 230.308 934.126 235.108 927.694 238.468C921.262 241.828 914.014 243.508 905.95 243.508ZM905.95 219.028C909.886 219.028 913.15 217.588 915.742 214.708C918.43 211.732 919.774 207.508 919.774 202.036C919.774 196.564 918.43 192.388 915.742 189.508C913.15 186.628 909.934 185.188 906.094 185.188C902.254 185.188 899.038 186.628 896.446 189.508C893.854 192.388 892.558 196.564 892.558 202.036C892.558 207.604 893.806 211.828 896.302 214.708C898.798 217.588 902.014 219.028 905.95 219.028Z" fill="#D55252"/>
<path d="M232.5 116.5C232.5 125.889 224.889 133.5 215.5 133.5L204.5 133.5C201.739 133.5 199.5 131.262 199.5 128.5L199.5 84.5002C199.5 81.7388 201.739 79.5002 204.5 79.5002L215.5 79.5002C224.889 79.5002 232.5 87.1114 232.5 96.5002L232.5 116.5Z" fill="#25283D"/>
<path d="M931.5 202.5C931.5 216.307 920.307 227.5 906.5 227.5C892.693 227.5 881.5 216.307 881.5 202.5C881.5 188.693 892.693 177.5 906.5 177.5C920.307 177.5 931.5 188.693 931.5 202.5Z" fill="#D55252"/>
<path d="M881.5 202.099C881.5 198.992 882.056 196.279 883.169 193.958C884.318 191.638 885.879 189.852 887.853 188.603C889.827 187.353 892.016 186.728 894.421 186.728C896.359 186.728 898.082 187.139 899.59 187.96C901.133 188.746 902.335 189.835 903.197 191.227V177.517H913.803V217.148H903.197V212.97C902.371 214.363 901.205 215.469 899.697 216.291C898.19 217.112 896.413 217.522 894.367 217.522C891.963 217.522 889.773 216.898 887.799 215.648C885.861 214.398 884.318 212.613 883.169 210.292C882.056 207.936 881.5 205.205 881.5 202.099ZM903.251 202.099C903.251 200.171 902.712 198.653 901.636 197.546C900.595 196.44 899.303 195.886 897.759 195.886C896.18 195.886 894.87 196.44 893.829 197.546C892.788 198.618 892.268 200.135 892.268 202.099C892.268 204.027 892.788 205.562 893.829 206.704C894.87 207.811 896.18 208.365 897.759 208.365C899.303 208.365 900.595 207.811 901.636 206.704C902.712 205.598 903.251 204.062 903.251 202.099Z" fill="#EFD9CE"/>
<path d="M918.362 184.318C916.496 184.318 914.989 183.818 913.84 182.819C912.727 181.783 912.171 180.498 912.171 178.963C912.171 177.392 912.727 176.089 913.84 175.053C914.989 174.018 916.496 173.5 918.362 173.5C920.193 173.5 921.665 174.018 922.777 175.053C923.926 176.089 924.5 177.392 924.5 178.963C924.5 180.498 923.926 181.783 922.777 182.819C921.665 183.818 920.193 184.318 918.362 184.318ZM923.639 220.093C923.639 227.698 919.798 231.5 912.117 231.5H908.295V222.557H910.556C911.453 222.557 912.099 222.378 912.494 222.021C912.889 221.664 913.086 221.075 913.086 220.254V187.103H923.639V220.093Z" fill="#EFD9CE"/>
</svg>