<svg width="2672" height="675" viewBox="0 0 2672 675" fill="none" xmlns="http://www.w3.org/2000/svg">
<g opacity="0.3">
<mask id="mask0_115_33" style="mask-type:alpha" maskUnits="userSpaceOnUse" x="0" y="0" width="2672" height="675">
<rect width="2672" height="675" fill="#C4C4C4"/>
</mask>
<g mask="url(#mask0_115_33)">
<path d="M740.603 619.459C788.96 688.884 734.492 783.226 650.189 776.06L196.032 737.452C123.131 731.255 81.4155 651.361 117.998 587.999L311.641 252.598C348.224 189.236 438.272 185.415 480.089 245.451L740.603 619.459Z" fill="black" fill-opacity="0.4"/>
<path d="M1702.25 252.584C1742.89 286.855 1725.17 352.97 1672.84 362.33L1390.93 412.755C1345.67 420.85 1307.36 379.144 1319.26 334.74L1382.24 99.6887C1394.14 55.284 1448.17 38.3212 1483.32 67.9575L1702.25 252.584Z" fill="black" fill-opacity="0.4"/>
<path d="M2574.09 152.321C2653.67 123.579 2730.7 200.609 2701.96 280.184L2547.12 708.874C2522.26 777.688 2434.3 797.303 2382.56 745.568L2108.71 471.715C2056.97 419.98 2076.59 332.011 2145.4 307.157L2574.09 152.321Z" fill="black" fill-opacity="0.4"/>
<path d="M1975.63 87.6319C1964.62 57.1381 1994.14 27.6195 2024.63 38.6334L2188.91 97.9679C2215.28 107.492 2222.8 141.203 2202.97 161.028L2098.03 265.971C2078.2 285.796 2044.49 278.279 2034.97 251.909L1975.63 87.6319Z" fill="black" fill-opacity="0.4"/>
<path d="M91.4061 291.016C60.4351 300.606 32.3149 269.753 44.7289 239.802L111.606 78.4476C122.341 52.547 156.363 46.5989 175.25 67.3209L275.221 177.01C294.107 197.732 285.037 231.058 258.255 239.352L91.4061 291.016Z" fill="black" fill-opacity="0.4"/>
<path d="M1234.49 564.189C1211.33 541.499 1225.11 502.093 1257.36 498.779L1431.11 480.924C1459 478.058 1480.4 505.164 1471.15 531.63L1422.16 671.723C1412.9 698.189 1379.27 706.05 1359.25 686.428L1234.49 564.189Z" fill="black" fill-opacity="0.4"/>
<path d="M1923.56 775.111C1924.94 821.813 1871.25 848.964 1834.45 820.179L1636.19 665.106C1604.36 640.214 1609.22 590.68 1645.28 572.445L1836.13 475.922C1872.18 457.687 1914.96 483.13 1916.15 523.516L1923.56 775.111Z" fill="black" fill-opacity="0.4"/>
<path d="M1050.78 544.835C1042.55 590.827 984.44 606.391 954.323 570.671L792.075 378.236C766.031 347.347 780.944 299.861 819.972 289.408L1026.56 234.074C1065.59 223.621 1102.24 257.295 1095.12 297.067L1050.78 544.835Z" fill="black" fill-opacity="0.4"/>
<path d="M1155.56 111.112C1156.94 157.814 1103.25 184.964 1066.45 156.179L868.189 1.10661C836.363 -23.7857 841.222 -73.3201 877.277 -91.5549L1068.13 -188.078C1104.18 -206.313 1146.96 -180.87 1148.15 -140.484L1155.56 111.112Z" fill="black" fill-opacity="0.4"/>
<path d="M653.754 128.985C669.819 130.125 677.278 149.474 666.135 161.103L606.109 223.749C596.473 233.805 579.652 230.43 574.642 217.435L548.123 148.647C543.114 135.652 553.316 121.859 567.208 122.845L653.754 128.985Z" fill="black" fill-opacity="0.4"/>
<path d="M1868.72 376.409C1856.46 365.973 1861.91 345.966 1877.78 343.199L1963.25 328.292C1976.97 325.899 1988.52 338.584 1984.86 352.021L1965.47 423.148C1961.81 436.585 1945.42 441.653 1934.81 432.628L1868.72 376.409Z" fill="black" fill-opacity="0.4"/>
<path d="M433.547 55.4553C444.737 48.5116 458.951 57.7557 457.142 70.7997L447.396 141.071C445.832 152.351 433.07 158.176 423.523 151.967L372.989 119.103C363.442 112.895 363.591 98.8672 373.267 92.8626L433.547 55.4553Z" fill="black" fill-opacity="0.4"/>
<path d="M2002.56 566.104C1989.43 565.069 1983.46 549.201 1992.65 539.764L2042.13 488.926C2050.07 480.766 2063.8 483.634 2067.82 494.291L2089.06 550.705C2093.07 561.363 2084.64 572.576 2073.29 571.68L2002.56 566.104Z" fill="black" fill-opacity="0.4"/>
</g>
</g>
</svg>