<svg width="14" height="14" viewBox="0 0 14 14" fill="none" xmlns="http://www.w3.org/2000/svg">
<path d="M12.797 1.727C12.0807 1.00425 11.1189 0.577084 10.1023 0.530222C9.08582 0.483359 8.0888 0.820219 7.309 1.474C7.2193 1.5417 7.11125 1.58074 6.999 1.586C6.88606 1.58271 6.77711 1.54347 6.688 1.474C5.90856 0.819847 4.91161 0.482736 3.89512 0.529605C2.87863 0.576474 1.91694 1.0039 1.201 1.727C0.431 2.497 0.00699997 3.521 0.00699997 4.61C0.00699997 5.699 0.431 6.723 1.175 7.465L5.637 12.688C5.80514 12.8852 6.01408 13.0436 6.2494 13.1523C6.48472 13.2609 6.74082 13.3171 7 13.3171C7.25918 13.3171 7.51528 13.2609 7.7506 13.1523C7.98592 13.0436 8.19486 12.8852 8.363 12.688L12.798 7.493C13.1779 7.1153 13.4791 6.66602 13.6842 6.17116C13.8893 5.67631 13.9943 5.14569 13.993 4.61C13.9939 4.07429 13.8886 3.54371 13.6833 3.04888C13.4781 2.55406 13.1768 2.10479 12.797 1.727V1.727Z" fill="#efd9ce"/>
</svg>
