<svg width="16" height="16" viewBox="0 0 16 16" fill="none" xmlns="http://www.w3.org/2000/svg">
<path d="M1.68999 2C2.54441 1.19461 3.67542 0.747963 4.84958 0.752243C6.02375 0.756523 7.15147 1.2114 7.99999 2.023C8.51048 1.53721 9.12611 1.17569 9.79904 0.966524C10.472 0.757361 11.1841 0.706194 11.88 0.817H11.882C12.8087 0.968697 13.6672 1.39933 14.3429 2.05146C15.0186 2.70359 15.4795 3.54623 15.664 4.467V4.47C15.7972 5.14484 15.7754 5.84112 15.6003 6.50631C15.4251 7.1715 15.1012 7.78824 14.653 8.31L9.34999 14.629C9.10041 14.9253 8.76026 15.1313 8.38201 15.2152C8.00376 15.299 7.60843 15.2561 7.25699 15.093C7.02398 14.9846 6.81748 14.8266 6.65199 14.63L1.34799 8.309C0.584264 7.41458 0.193711 6.26074 0.257187 5.08633C0.320664 3.91192 0.833309 2.80689 1.68899 2H1.68999ZM4.84799 2.252C4.25755 2.249 3.67866 2.41567 3.18021 2.73219C2.68176 3.0487 2.28472 3.50174 2.03632 4.0374C1.78793 4.57307 1.69863 5.16881 1.77906 5.75376C1.85948 6.33871 2.10625 6.88825 2.48999 7.337L2.49499 7.342L7.79999 13.664C7.83725 13.7078 7.88778 13.7382 7.94391 13.7507C8.00005 13.7631 8.05871 13.7569 8.11099 13.733C8.14567 13.7168 8.17639 13.6933 8.20099 13.664L13.513 7.334C13.8138 6.98465 14.0314 6.57151 14.1492 6.12578C14.267 5.68005 14.282 5.21337 14.193 4.761C14.0683 4.13992 13.7574 3.57156 13.3017 3.13156C12.846 2.69156 12.2671 2.4008 11.642 2.298C11.1732 2.22346 10.6935 2.25832 10.2404 2.39988C9.78725 2.54143 9.373 2.78584 9.02999 3.114L9.02299 3.121C8.74523 3.37946 8.3799 3.52314 8.00049 3.52314C7.62108 3.52314 7.25575 3.37946 6.97799 3.121L6.96899 3.113C6.39874 2.56435 5.63931 2.25607 4.84799 2.252V2.252Z" fill="#efd9ce"/>
</svg>
