<svg width="16" height="16" viewBox="0 0 16 16" fill="none" xmlns="http://www.w3.org/2000/svg">
<path d="M13.426 2.57398C13.0574 2.20521 12.5941 1.94541 12.0872 1.82322C11.5803 1.70104 11.0495 1.72122 10.5533 1.88153C10.0572 2.04185 9.61494 2.33608 9.27538 2.73177C8.93582 3.12746 8.71214 3.60924 8.629 4.12398L11.876 7.37098C12.3907 7.28784 12.8725 7.06416 13.2682 6.7246C13.6639 6.38504 13.9581 5.9428 14.1184 5.44664C14.2788 4.95049 14.2989 4.41969 14.1768 3.9128C14.0546 3.40591 13.7948 2.9426 13.426 2.57398V2.57398ZM10.5 8.11798L7.881 5.49798C6.83395 6.69028 5.78695 7.88261 4.74 9.07498L2.065 12.12C1.85019 12.3657 1.73677 12.6839 1.74772 13.0101C1.75866 13.3364 1.89315 13.6462 2.12395 13.877C2.35475 14.1078 2.66462 14.2423 2.99084 14.2533C3.31706 14.2642 3.63525 14.1508 3.881 13.936L6.941 11.248L10.501 8.11898L10.5 8.11798ZM7.12 4.09398C7.21074 3.28354 7.52845 2.51518 8.03657 1.87732C8.5447 1.23947 9.22258 0.758033 9.99223 0.488418C10.7619 0.218803 11.592 0.171964 12.3871 0.353292C13.1822 0.534619 13.9099 0.936744 14.4866 1.51339C15.0632 2.09004 15.4654 2.81779 15.6467 3.61288C15.828 4.40797 15.7812 5.2381 15.5116 6.00775C15.2419 6.7774 14.7605 7.45529 14.1227 7.96341C13.4848 8.47153 12.7164 8.78924 11.906 8.87998L7.932 12.373L4.872 15.062C4.34 15.5286 3.65042 15.7754 2.94314 15.7523C2.23587 15.7292 1.56387 15.4379 1.06349 14.9375C0.563101 14.4371 0.2718 13.7651 0.248681 13.0578C0.225563 12.3506 0.472359 11.661 0.938999 11.129L3.615 8.08398L7.12 4.09398V4.09398Z" fill="#EFD9CE"/>
</svg>
