<svg width="19" height="21" viewBox="0 0 19 21" fill="none" xmlns="http://www.w3.org/2000/svg">
<path d="M14.387 14.623C15.2135 13.8318 15.8712 12.8813 16.3203 11.829C16.7694 10.7766 17.0006 9.64418 17 8.5C17 6.81886 16.5015 5.17547 15.5675 3.77765C14.6335 2.37984 13.306 1.29037 11.7528 0.647024C10.1996 0.0036791 8.49057 -0.164649 6.84174 0.163325C5.1929 0.4913 3.67834 1.30085 2.4896 2.48959C1.30085 3.67834 0.491303 5.19289 0.163329 6.84173C-0.164645 8.49057 0.00368291 10.1996 0.647028 11.7528C1.29037 13.306 2.37984 14.6335 3.77766 15.5675C5.17547 16.5015 6.81886 17 8.5 17C10.3517 17.0002 12.1522 16.3924 13.625 15.27L18.026 20.423L18.786 19.774L14.387 14.623V14.623ZM8.5 16C4.364 16 1 12.636 1 8.5C1 4.364 4.364 1 8.5 1C12.636 1 16 4.364 16 8.5C16 12.636 12.636 16 8.5 16Z" fill="#efd9ce"/>
</svg>
