<svg width="15" height="16" viewBox="0 0 15 16" fill="none" xmlns="http://www.w3.org/2000/svg">
<path d="M9.741 0.85003C9.85509 0.915897 9.94981 1.01065 10.0156 1.12476C10.0815 1.23886 10.1161 1.3683 10.116 1.50003V14.5C10.1161 14.6317 10.0815 14.7611 10.0157 14.8752C9.94991 14.9893 9.85524 15.084 9.74121 15.1499C9.62718 15.2158 9.49782 15.2505 9.36612 15.2505C9.23443 15.2505 9.10505 15.2159 8.991 15.15L2.066 11.15C1.2322 10.6666 0.624022 9.87235 0.374725 8.94133C0.125429 8.01032 0.255343 7.01844 0.736003 6.18303C1.05484 5.63007 1.51352 5.1707 2.066 4.85103L8.991 0.85103C9.10502 0.785204 9.23435 0.750549 9.366 0.750549C9.49766 0.750549 9.62699 0.785204 9.741 0.85103V0.85003ZM2.817 6.15003C2.49297 6.33809 2.22402 6.60796 2.03706 6.93263C1.8501 7.2573 1.7517 7.62538 1.7517 8.00003C1.7517 8.37468 1.8501 8.74276 2.03706 9.06743C2.22402 9.3921 2.49297 9.66197 2.817 9.85003L8.617 13.2V2.80003L2.817 6.15003V6.15003ZM11.5 12.237C12.3726 11.9236 13.1271 11.3485 13.6605 10.5901C14.194 9.83174 14.4802 8.92719 14.4802 8.00003C14.4802 7.07287 14.194 6.16832 13.6605 5.40996C13.1271 4.65161 12.3726 4.07643 11.5 3.76303V5.41303C11.9514 5.67752 12.3257 6.05549 12.5858 6.5094C12.846 6.96331 12.9828 7.47737 12.9828 8.00053C12.9828 8.52369 12.846 9.03775 12.5858 9.49166C12.3257 9.94557 11.9514 10.3235 11.5 10.588V12.237Z" fill="#EFD9CE"/>
</svg>
